<mxfile host="app.diagrams.net" modified="2023-06-13T18:00:11.540Z" agent="Mozilla/5.0 (Windows NT 10.0; Win64; x64) AppleWebKit/537.36 (KHTML, like Gecko) Chrome/114.0.0.0 Safari/537.36 Edg/114.0.1823.43" etag="AOa8MRFt2qCY5qYWidcQ" version="21.3.8" type="device">
  <diagram name="Página-1" id="5BRqV--OCIdSzb596PMs">
    <mxGraphModel dx="2206" dy="1212" grid="1" gridSize="10" guides="1" tooltips="1" connect="1" arrows="1" fold="1" page="1" pageScale="1" pageWidth="827" pageHeight="1169" math="0" shadow="0">
      <root>
        <mxCell id="0" />
        <mxCell id="1" parent="0" />
        <mxCell id="_zQp88rMQZklA--gGrSg-4" value="" style="edgeStyle=orthogonalEdgeStyle;rounded=0;orthogonalLoop=1;jettySize=auto;html=1;" edge="1" parent="1" source="_zQp88rMQZklA--gGrSg-1" target="_zQp88rMQZklA--gGrSg-3">
          <mxGeometry relative="1" as="geometry" />
        </mxCell>
        <mxCell id="_zQp88rMQZklA--gGrSg-1" value="Inicio" style="html=1;dashed=0;whiteSpace=wrap;shape=mxgraph.dfd.start" vertex="1" parent="1">
          <mxGeometry x="245" y="70" width="80" height="30" as="geometry" />
        </mxCell>
        <mxCell id="_zQp88rMQZklA--gGrSg-6" value="" style="edgeStyle=orthogonalEdgeStyle;rounded=0;orthogonalLoop=1;jettySize=auto;html=1;" edge="1" parent="1" source="_zQp88rMQZklA--gGrSg-3" target="_zQp88rMQZklA--gGrSg-5">
          <mxGeometry relative="1" as="geometry" />
        </mxCell>
        <mxCell id="_zQp88rMQZklA--gGrSg-3" value="a, b, c" style="shape=manualInput;whiteSpace=wrap;html=1;dashed=0;size=15;" vertex="1" parent="1">
          <mxGeometry x="235" y="150" width="100" height="50" as="geometry" />
        </mxCell>
        <mxCell id="_zQp88rMQZklA--gGrSg-8" value="" style="edgeStyle=orthogonalEdgeStyle;rounded=0;orthogonalLoop=1;jettySize=auto;html=1;" edge="1" parent="1" source="_zQp88rMQZklA--gGrSg-5" target="_zQp88rMQZklA--gGrSg-7">
          <mxGeometry relative="1" as="geometry" />
        </mxCell>
        <mxCell id="_zQp88rMQZklA--gGrSg-10" value="" style="edgeStyle=orthogonalEdgeStyle;rounded=0;orthogonalLoop=1;jettySize=auto;html=1;" edge="1" parent="1" source="_zQp88rMQZklA--gGrSg-5" target="_zQp88rMQZklA--gGrSg-9">
          <mxGeometry relative="1" as="geometry" />
        </mxCell>
        <mxCell id="_zQp88rMQZklA--gGrSg-5" value="a == 0" style="shape=rhombus;html=1;dashed=0;whiteSpace=wrap;perimeter=rhombusPerimeter;" vertex="1" parent="1">
          <mxGeometry x="225" y="260" width="120" height="70" as="geometry" />
        </mxCell>
        <mxCell id="_zQp88rMQZklA--gGrSg-73" style="edgeStyle=orthogonalEdgeStyle;rounded=0;orthogonalLoop=1;jettySize=auto;html=1;exitX=1;exitY=0.5;exitDx=0;exitDy=0;exitPerimeter=0;" edge="1" parent="1" source="_zQp88rMQZklA--gGrSg-7">
          <mxGeometry relative="1" as="geometry">
            <mxPoint x="492" y="1015" as="targetPoint" />
            <mxPoint x="488" y="335" as="sourcePoint" />
            <Array as="points">
              <mxPoint x="632" y="295" />
              <mxPoint x="632" y="1015" />
            </Array>
          </mxGeometry>
        </mxCell>
        <mxCell id="_zQp88rMQZklA--gGrSg-7" value="&quot;Esta é uma &lt;br&gt;&lt;div style=&quot;&quot;&gt;&lt;span style=&quot;background-color: initial;&quot;&gt;e&lt;/span&gt;&lt;span style=&quot;background-color: initial;&quot;&gt;quação&lt;/span&gt;&lt;/div&gt;de 1º grau&quot;" style="shape=display;whiteSpace=wrap;html=1;" vertex="1" parent="1">
          <mxGeometry x="421" y="260" width="140" height="70" as="geometry" />
        </mxCell>
        <mxCell id="_zQp88rMQZklA--gGrSg-12" value="" style="edgeStyle=orthogonalEdgeStyle;rounded=0;orthogonalLoop=1;jettySize=auto;html=1;" edge="1" parent="1" source="_zQp88rMQZklA--gGrSg-9" target="_zQp88rMQZklA--gGrSg-11">
          <mxGeometry relative="1" as="geometry" />
        </mxCell>
        <mxCell id="_zQp88rMQZklA--gGrSg-55" style="edgeStyle=orthogonalEdgeStyle;rounded=0;orthogonalLoop=1;jettySize=auto;html=1;entryX=0.5;entryY=0;entryDx=0;entryDy=0;" edge="1" parent="1" source="_zQp88rMQZklA--gGrSg-9" target="_zQp88rMQZklA--gGrSg-58">
          <mxGeometry relative="1" as="geometry">
            <mxPoint x="285" y="490" as="targetPoint" />
          </mxGeometry>
        </mxCell>
        <mxCell id="_zQp88rMQZklA--gGrSg-9" value="b == 0&lt;br&gt;||&lt;br&gt;c == 0" style="shape=rhombus;html=1;dashed=0;whiteSpace=wrap;perimeter=rhombusPerimeter;" vertex="1" parent="1">
          <mxGeometry x="225" y="370" width="120" height="70" as="geometry" />
        </mxCell>
        <mxCell id="_zQp88rMQZklA--gGrSg-56" style="edgeStyle=orthogonalEdgeStyle;rounded=0;orthogonalLoop=1;jettySize=auto;html=1;entryX=1;entryY=0.5;entryDx=0;entryDy=0;exitX=0;exitY=0;exitDx=70;exitDy=70;exitPerimeter=0;" edge="1" parent="1" source="_zQp88rMQZklA--gGrSg-11" target="_zQp88rMQZklA--gGrSg-58">
          <mxGeometry relative="1" as="geometry">
            <mxPoint x="491" y="480" as="targetPoint" />
          </mxGeometry>
        </mxCell>
        <mxCell id="_zQp88rMQZklA--gGrSg-11" value="&quot;Equação de &lt;br&gt;2º grau &lt;br&gt;incompleta&quot;" style="shape=display;whiteSpace=wrap;html=1;" vertex="1" parent="1">
          <mxGeometry x="421" y="370" width="140" height="70" as="geometry" />
        </mxCell>
        <mxCell id="_zQp88rMQZklA--gGrSg-61" value="" style="edgeStyle=orthogonalEdgeStyle;rounded=0;orthogonalLoop=1;jettySize=auto;html=1;" edge="1" parent="1" source="_zQp88rMQZklA--gGrSg-57" target="_zQp88rMQZklA--gGrSg-60">
          <mxGeometry relative="1" as="geometry" />
        </mxCell>
        <mxCell id="_zQp88rMQZklA--gGrSg-57" value="delta ← (b * b) - 4 * a * c" style="rounded=0;whiteSpace=wrap;html=1;" vertex="1" parent="1">
          <mxGeometry x="195" y="560" width="180" height="40" as="geometry" />
        </mxCell>
        <mxCell id="_zQp88rMQZklA--gGrSg-59" value="" style="edgeStyle=orthogonalEdgeStyle;rounded=0;orthogonalLoop=1;jettySize=auto;html=1;" edge="1" parent="1" source="_zQp88rMQZklA--gGrSg-58" target="_zQp88rMQZklA--gGrSg-57">
          <mxGeometry relative="1" as="geometry" />
        </mxCell>
        <mxCell id="_zQp88rMQZklA--gGrSg-58" value="" style="ellipse;whiteSpace=wrap;html=1;aspect=fixed;" vertex="1" parent="1">
          <mxGeometry x="270" y="490" width="30" height="30" as="geometry" />
        </mxCell>
        <mxCell id="_zQp88rMQZklA--gGrSg-63" value="" style="edgeStyle=orthogonalEdgeStyle;rounded=0;orthogonalLoop=1;jettySize=auto;html=1;" edge="1" parent="1" source="_zQp88rMQZklA--gGrSg-60" target="_zQp88rMQZklA--gGrSg-62">
          <mxGeometry relative="1" as="geometry" />
        </mxCell>
        <mxCell id="_zQp88rMQZklA--gGrSg-69" value="" style="edgeStyle=orthogonalEdgeStyle;rounded=0;orthogonalLoop=1;jettySize=auto;html=1;" edge="1" parent="1" source="_zQp88rMQZklA--gGrSg-60" target="_zQp88rMQZklA--gGrSg-65">
          <mxGeometry relative="1" as="geometry" />
        </mxCell>
        <mxCell id="_zQp88rMQZklA--gGrSg-60" value="delta &amp;lt; 0" style="shape=rhombus;html=1;dashed=0;whiteSpace=wrap;perimeter=rhombusPerimeter;" vertex="1" parent="1">
          <mxGeometry x="225" y="640" width="120" height="70" as="geometry" />
        </mxCell>
        <mxCell id="_zQp88rMQZklA--gGrSg-72" style="edgeStyle=orthogonalEdgeStyle;rounded=0;orthogonalLoop=1;jettySize=auto;html=1;entryX=1;entryY=0.5;entryDx=0;entryDy=0;exitX=0;exitY=0;exitDx=70;exitDy=70;exitPerimeter=0;" edge="1" parent="1" source="_zQp88rMQZklA--gGrSg-62" target="_zQp88rMQZklA--gGrSg-70">
          <mxGeometry relative="1" as="geometry" />
        </mxCell>
        <mxCell id="_zQp88rMQZklA--gGrSg-62" value="&quot;Não existem &lt;br&gt;raízes reais&quot;" style="shape=display;whiteSpace=wrap;html=1;" vertex="1" parent="1">
          <mxGeometry x="421" y="640" width="140" height="70" as="geometry" />
        </mxCell>
        <mxCell id="_zQp88rMQZklA--gGrSg-64" value="" style="edgeStyle=orthogonalEdgeStyle;rounded=0;orthogonalLoop=1;jettySize=auto;html=1;" edge="1" source="_zQp88rMQZklA--gGrSg-65" target="_zQp88rMQZklA--gGrSg-67" parent="1">
          <mxGeometry relative="1" as="geometry" />
        </mxCell>
        <mxCell id="_zQp88rMQZklA--gGrSg-65" value="x1 ← (-b +&amp;nbsp;√delta / (2 * a)" style="rounded=0;whiteSpace=wrap;html=1;" vertex="1" parent="1">
          <mxGeometry x="205" y="770" width="160" height="40" as="geometry" />
        </mxCell>
        <mxCell id="_zQp88rMQZklA--gGrSg-66" value="" style="edgeStyle=orthogonalEdgeStyle;rounded=0;orthogonalLoop=1;jettySize=auto;html=1;" edge="1" source="_zQp88rMQZklA--gGrSg-67" target="_zQp88rMQZklA--gGrSg-68" parent="1">
          <mxGeometry relative="1" as="geometry" />
        </mxCell>
        <mxCell id="_zQp88rMQZklA--gGrSg-67" value="x2 ← (-b - √delta / (2 * a)" style="rounded=0;whiteSpace=wrap;html=1;" vertex="1" parent="1">
          <mxGeometry x="205" y="835" width="160" height="40" as="geometry" />
        </mxCell>
        <mxCell id="_zQp88rMQZklA--gGrSg-71" value="" style="edgeStyle=orthogonalEdgeStyle;rounded=0;orthogonalLoop=1;jettySize=auto;html=1;" edge="1" parent="1" source="_zQp88rMQZklA--gGrSg-68" target="_zQp88rMQZklA--gGrSg-70">
          <mxGeometry relative="1" as="geometry" />
        </mxCell>
        <mxCell id="_zQp88rMQZklA--gGrSg-68" value="x1, x2" style="shape=display;whiteSpace=wrap;html=1;" vertex="1" parent="1">
          <mxGeometry x="235" y="915" width="100" height="50" as="geometry" />
        </mxCell>
        <mxCell id="_zQp88rMQZklA--gGrSg-76" value="" style="edgeStyle=orthogonalEdgeStyle;rounded=0;orthogonalLoop=1;jettySize=auto;html=1;" edge="1" parent="1" source="_zQp88rMQZklA--gGrSg-70" target="_zQp88rMQZklA--gGrSg-75">
          <mxGeometry relative="1" as="geometry" />
        </mxCell>
        <mxCell id="_zQp88rMQZklA--gGrSg-70" value="" style="ellipse;whiteSpace=wrap;html=1;aspect=fixed;" vertex="1" parent="1">
          <mxGeometry x="270" y="1000" width="30" height="30" as="geometry" />
        </mxCell>
        <mxCell id="_zQp88rMQZklA--gGrSg-75" value="fim" style="html=1;dashed=0;whiteSpace=wrap;shape=mxgraph.dfd.start" vertex="1" parent="1">
          <mxGeometry x="245" y="1070" width="80" height="30" as="geometry" />
        </mxCell>
      </root>
    </mxGraphModel>
  </diagram>
</mxfile>
